<svg width="605" height="364" viewBox="0 0 605 364" fill="none" xmlns="http://www.w3.org/2000/svg">
<path d="M29.8856 112.528C-0.914396 121.328 2.05227 186.861 7.3856 218.528L408.885 313.477L599.385 358.528C589.385 272.028 559.885 244.528 556.385 235.028C552.885 225.528 568.5 190.5 567.385 183.028C566.461 176.831 583.385 135.528 570.385 127.528C559.985 121.128 510.719 134.195 487.385 141.528C461.552 129.028 442.209 111.073 389 88C332.5 63.5 321.885 62.3612 303.385 58.0278C295.219 40.5278 275.885 5.22774 263.885 4.02774C251.885 2.82774 230.219 40.8612 220.885 60.0279C179.285 50.4279 116.207 109.361 89.8681 140.028C87.132 134.34 84.6668 128.557 82.8855 124.028C78.0522 116.528 60.6856 103.728 29.8856 112.528Z" fill="#565A70"/>
<path d="M7.3856 218.528L3.44115 219.192L3.88199 221.809L6.46505 222.42L7.3856 218.528ZM29.8856 112.528L30.9845 116.374L29.8856 112.528ZM82.8855 124.028L86.608 122.564L86.4628 122.194L86.2478 121.861L82.8855 124.028ZM110.615 164.452C112.23 162.945 112.317 160.414 110.81 158.799C109.302 157.184 106.771 157.096 105.156 158.604L110.615 164.452ZM220.885 60.0279L219.986 63.9254L223.088 64.6413L224.482 61.7791L220.885 60.0279ZM263.885 4.02774L263.487 8.00789L263.885 4.02774ZM303.385 58.0278L299.761 59.7194L300.582 61.4795L302.473 61.9224L303.385 58.0278ZM389 88L387.409 91.6698L389 88ZM487.385 141.528L485.643 145.128L487.071 145.819L488.585 145.344L487.385 141.528ZM570.385 127.528L572.482 124.121L570.385 127.528ZM567.385 183.028L563.429 183.618V183.618L567.385 183.028ZM599.385 358.528L598.465 362.42L604.014 363.733L603.359 358.068L599.385 358.528ZM408.885 313.477L407.965 317.37L408.885 313.477ZM399.885 295.028L395.938 295.675L396.033 296.254L396.29 296.782L399.885 295.028ZM428.385 199.528L427.743 195.58L428.385 199.528ZM485.885 233.528L481.988 234.427L481.988 234.427L485.885 233.528ZM7.3856 218.528L11.3301 217.863C8.70207 202.26 6.67406 178.357 9.05992 157.405C10.2541 146.919 12.5264 137.435 16.1982 130.15C19.8495 122.906 24.697 118.17 30.9845 116.374L29.8856 112.528L28.7867 108.682C19.6742 111.285 13.3425 118.041 9.0543 126.549C4.78646 135.017 2.35882 145.545 1.11129 156.5C-1.38619 178.432 0.735798 203.129 3.44115 219.192L7.3856 218.528ZM29.8856 112.528L30.9845 116.374C60.2687 108.007 75.7417 120.327 79.5232 126.194L82.8855 124.028L86.2478 121.861C80.3627 112.729 61.1025 99.4485 28.7867 108.682L29.8856 112.528ZM82.8855 124.028L79.163 125.492C80.9757 130.101 83.4797 135.975 86.2635 141.762L89.8681 140.028L93.4728 138.294C90.7843 132.705 88.3579 127.014 86.608 122.564L82.8855 124.028ZM89.8681 140.028L86.2635 141.762C89.4015 148.285 93.0024 154.927 96.456 159.499C98.1384 161.727 100.062 163.844 102.159 165.077C103.243 165.714 104.628 166.268 106.212 166.251C107.91 166.233 109.424 165.564 110.615 164.452L107.885 161.528L105.156 158.604C105.305 158.465 105.669 158.257 106.128 158.252C106.473 158.248 106.53 158.366 106.215 158.181C105.516 157.77 104.363 156.694 102.84 154.678C99.8825 150.762 96.5586 144.709 93.4728 138.294L89.8681 140.028ZM89.8681 140.028L92.9025 142.634C105.92 127.478 128.043 105.316 151.982 88.1805C163.951 79.6131 176.251 72.3915 187.996 67.9017C199.777 63.3983 210.658 61.7728 219.986 63.9254L220.885 60.0279L221.785 56.1303C210.313 53.4829 197.709 55.6241 185.14 60.4291C172.535 65.2475 159.619 72.876 147.326 81.6753C122.741 99.2727 100.156 121.911 86.8337 137.422L89.8681 140.028ZM220.885 60.0279L224.482 61.7791C229.094 52.307 236.747 38.1948 244.681 26.6568C248.66 20.8712 252.605 15.8873 256.182 12.4668C257.97 10.756 259.553 9.54677 260.895 8.81235C262.261 8.06536 263.084 7.96756 263.487 8.00789L263.885 4.02774L264.284 0.0475903C261.687 -0.212083 259.208 0.61616 257.055 1.79431C254.879 2.98502 252.728 4.70001 250.652 6.68555C246.499 10.6578 242.194 16.1552 238.09 22.1237C229.858 34.0942 222.01 48.582 217.289 58.2766L220.885 60.0279ZM263.885 4.02774L263.487 8.00789C264.109 8.07 265.1 8.3989 266.494 9.3161C267.861 10.216 269.407 11.544 271.096 13.2911C274.477 16.7878 278.118 21.6287 281.733 27.1159C288.949 38.0687 295.732 51.0858 299.761 59.7194L303.385 58.0278L307.01 56.3363C302.873 47.4699 295.906 34.0869 288.413 22.7146C284.674 17.0393 280.721 11.7365 276.847 7.73004C274.909 5.72559 272.911 3.96211 270.892 2.63353C268.9 1.3222 266.662 0.285478 264.284 0.0475903L263.885 4.02774ZM303.385 58.0278L302.473 61.9224C311.836 64.1154 318.887 65.4342 330.712 69.2574C342.562 73.0885 359.205 79.4401 387.409 91.6698L389 88L390.591 84.3302C362.295 72.0599 345.381 65.5921 333.173 61.6454C320.942 57.6909 313.435 56.2735 304.298 54.1332L303.385 58.0278ZM389 88L387.409 91.6698C413.807 103.117 431.781 113.282 446.383 122.148C460.892 130.958 472.498 138.768 485.643 145.128L487.385 141.528L489.128 137.927C476.439 131.788 465.457 124.37 450.535 115.31C435.704 106.305 417.402 95.956 390.591 84.3302L389 88ZM487.385 141.528L488.585 145.344C500.166 141.704 518.177 136.644 534.537 133.297C542.729 131.62 550.393 130.397 556.583 129.975C559.68 129.764 562.305 129.761 564.389 129.971C566.555 130.189 567.752 130.604 568.289 130.934L570.385 127.528L572.482 124.121C570.419 122.852 567.801 122.275 565.192 122.011C562.499 121.74 559.387 121.765 556.038 121.993C549.336 122.45 541.276 123.752 532.934 125.459C516.227 128.878 497.939 134.018 486.186 137.712L487.385 141.528ZM570.385 127.528L568.289 130.934C569.777 131.85 571.037 134.136 571.276 138.904C571.506 143.48 570.723 149.187 569.496 155.148C568.276 161.074 566.689 166.935 565.419 171.869C564.793 174.301 564.233 176.549 563.861 178.405C563.53 180.051 563.195 182.047 563.429 183.618L567.385 183.028L571.342 182.438C571.345 182.46 571.337 181.809 571.704 179.979C572.029 178.359 572.539 176.302 573.166 173.864C574.403 169.061 576.061 162.935 577.332 156.761C578.595 150.621 579.548 144.114 579.266 138.503C578.994 133.082 577.494 127.205 572.482 124.121L570.385 127.528ZM567.385 183.028L563.429 183.618C563.464 183.85 563.459 184.654 563.156 186.289C562.875 187.809 562.406 189.696 561.792 191.893C560.557 196.315 558.858 201.563 557.166 207.098C555.5 212.544 553.86 218.21 552.863 223.156C552.365 225.63 552.007 228.023 551.904 230.182C551.804 232.275 551.923 234.486 552.632 236.411L556.385 235.028L560.139 233.645C559.973 233.195 559.815 232.233 559.894 230.563C559.971 228.958 560.25 226.998 560.706 224.736C561.618 220.208 563.155 214.869 564.816 209.437C566.45 204.093 568.228 198.589 569.497 194.045C570.136 191.76 570.677 189.61 571.022 187.747C571.346 185.999 571.586 184.074 571.342 182.438L567.385 183.028ZM556.385 235.028L552.632 236.411C553.233 238.043 554.294 239.835 555.45 241.657C556.611 243.486 558.182 245.821 559.818 248.345C563.178 253.526 567.41 260.402 571.842 269.634C580.701 288.085 590.46 316.153 595.412 358.987L599.385 358.528L603.359 358.068C598.311 314.403 588.32 285.47 579.054 266.172C574.424 256.528 569.999 249.342 566.531 243.992C564.753 241.251 563.367 239.202 562.205 237.371C561.039 235.533 560.413 234.388 560.139 233.645L556.385 235.028ZM599.385 358.528L600.306 354.635L409.806 309.584L408.885 313.477L407.965 317.37L598.465 362.42L599.385 358.528ZM408.885 313.477L409.806 309.584L8.30616 214.635L7.3856 218.528L6.46505 222.42L407.965 317.37L408.885 313.477ZM408.885 313.477L412.481 311.723L403.481 293.274L399.885 295.028L396.29 296.782L405.29 315.231L408.885 313.477ZM399.885 295.028L403.833 294.381C401.46 279.898 400.037 257.906 403.362 239.009C406.751 219.749 414.602 205.824 429.028 203.476L428.385 199.528L427.743 195.58C407.769 198.831 398.953 217.906 395.484 237.622C391.95 257.7 393.478 280.657 395.938 295.675L399.885 295.028ZM428.385 199.528L429.028 203.476C449.05 200.217 462.048 207.589 470.226 215.928C474.369 220.154 477.3 224.664 479.221 228.249C480.18 230.036 480.877 231.575 481.342 232.707C481.843 233.926 482.006 234.506 481.988 234.427L485.885 233.528L489.783 232.628C489.552 231.625 488.407 228.452 486.272 224.469C484.087 220.392 480.734 215.218 475.938 210.327C466.235 200.433 450.721 191.839 427.743 195.58L428.385 199.528ZM485.885 233.528L481.988 234.427C482.532 236.786 483.969 239.348 485.439 241.589C486.978 243.934 488.841 246.353 490.606 248.503C492.38 250.663 494.098 252.606 495.37 254.007C496.008 254.708 496.536 255.277 496.907 255.673C497.093 255.87 497.24 256.025 497.341 256.132C497.392 256.185 497.431 256.226 497.459 256.255C497.472 256.269 497.483 256.28 497.491 256.288C497.495 256.292 497.498 256.296 497.5 256.298C497.501 256.299 497.502 256.3 497.503 256.301C497.503 256.301 497.503 256.302 497.504 256.302C497.504 256.302 497.504 256.302 500.385 253.528C503.267 250.753 503.267 250.753 503.267 250.754C503.267 250.754 503.267 250.754 503.267 250.754C503.267 250.754 503.267 250.753 503.266 250.753C503.266 250.752 503.264 250.75 503.261 250.748C503.256 250.743 503.249 250.734 503.238 250.723C503.216 250.7 503.182 250.665 503.137 250.618C503.047 250.523 502.913 250.382 502.741 250.198C502.395 249.829 501.896 249.293 501.291 248.627C500.079 247.293 498.454 245.455 496.79 243.427C495.117 241.39 493.45 239.215 492.129 237.201C490.739 235.083 489.989 233.52 489.783 232.628L485.885 233.528Z" fill="black"/>
<path d="M43.8541 140.555C45.0906 146.459 43.0011 151.903 39.1871 152.715C35.373 153.527 31.2788 149.399 30.0422 143.495C28.8057 137.591 30.8952 132.147 34.7093 131.336C38.5233 130.524 42.6176 134.651 43.8541 140.555Z" fill="#FF9865"/>
<path d="M59.5294 136.899C59.5516 142.933 56.4095 147.836 52.5114 147.85C48.6133 147.865 45.4353 142.985 45.4131 136.952C45.3909 130.918 48.5329 126.015 52.431 126C56.3291 125.985 59.5071 130.865 59.5294 136.899Z" fill="#FF9865"/>
<path d="M76.9499 142.081C76.4883 148.097 72.9636 152.728 69.077 152.425C65.1905 152.122 62.414 147 62.8755 140.984C63.337 134.968 66.8618 130.337 70.7483 130.64C74.6349 130.943 77.4114 136.065 76.9499 142.081Z" fill="#FF9865"/>
<path d="M32.2816 156.266C35.3728 161.433 35.1726 167.266 31.8346 169.296C28.4966 171.325 23.2847 168.782 20.1935 163.615C17.1024 158.448 17.3025 152.614 20.6406 150.585C23.9786 148.555 29.1905 151.099 32.2816 156.266Z" fill="#FF9865"/>
<path d="M42.9454 161.265C42.6737 166.555 41.0702 169.526 32.4667 174.032C34.0203 207.255 85.243 189.282 73.399 161.488C66.436 164.702 63.2406 162.384 58.9489 156.244C52.8046 151.061 43.4828 154.663 42.9454 161.265Z" fill="#FF9865"/>
<path d="M439.528 234.887C440.48 241.17 437.935 246.766 433.843 247.386C429.751 248.006 425.662 243.415 424.709 237.132C423.757 230.849 426.303 225.253 430.395 224.633C434.487 224.013 438.576 228.603 439.528 234.887Z" fill="#FF9865"/>
<path d="M456.365 232.002C456.023 238.347 452.394 243.31 448.262 243.087C444.129 242.864 441.057 237.539 441.399 231.193C441.742 224.847 445.37 219.884 449.503 220.108C453.636 220.331 456.708 225.656 456.365 232.002Z" fill="#FF9865"/>
<path d="M474.516 238.517C473.662 244.814 469.644 249.468 465.543 248.911C461.442 248.355 458.81 242.799 459.664 236.502C460.519 230.204 464.536 225.551 468.637 226.107C472.738 226.664 475.37 232.22 474.516 238.517Z" fill="#FF9865"/>
<path d="M426.308 250.697C429.271 256.319 428.704 262.441 425.043 264.37C421.381 266.3 416.011 263.307 413.049 257.685C410.086 252.063 410.652 245.941 414.314 244.012C417.975 242.082 423.345 245.075 426.308 250.697Z" fill="#FF9865"/>
<path d="M437.308 256.606C436.698 262.152 434.818 265.178 425.425 269.389C425.055 304.416 480.441 288.654 469.574 258.705C461.998 261.659 458.752 259.025 454.576 252.307C448.377 246.481 438.278 249.697 437.308 256.606Z" fill="#FF9865"/>
<path d="M228.772 184.08C228.248 181.934 226.084 180.618 223.938 181.142C221.791 181.665 220.476 183.829 220.999 185.976L228.772 184.08ZM258.385 195.028L259.17 191.106L258.385 195.028ZM224.885 185.028L220.999 185.976C223.559 196.471 227.009 203.24 231.44 206.901C236.265 210.887 241.543 210.661 245.916 208.936C250.05 207.306 253.68 204.255 256.187 201.985C257.624 200.685 258.418 199.899 259.282 199.138C259.462 198.98 259.607 198.857 259.722 198.765C259.779 198.719 259.824 198.685 259.857 198.66C259.891 198.635 259.906 198.625 259.906 198.625C259.906 198.625 259.899 198.629 259.887 198.637C259.875 198.644 259.855 198.656 259.828 198.671C259.778 198.698 259.678 198.749 259.536 198.804C259.335 198.881 258.594 199.149 257.601 198.95L258.385 195.028L259.17 191.106C258.021 190.876 257.087 191.174 256.659 191.339C256.174 191.526 255.776 191.766 255.508 191.942C254.969 192.297 254.438 192.744 253.995 193.134C253.193 193.84 251.858 195.113 250.818 196.055C248.372 198.269 245.659 200.438 242.98 201.494C240.54 202.457 238.537 202.387 236.535 200.733C234.137 198.753 231.212 194.084 228.772 184.08L224.885 185.028ZM258.385 195.028L257.601 198.95C256.724 198.775 256.199 198.336 256.062 198.217C255.884 198.063 255.812 197.958 255.846 198.002C255.914 198.092 256.079 198.341 256.367 198.856C256.949 199.899 257.618 201.26 258.578 203.106C260.388 206.586 262.96 211.244 266.393 215.052C269.82 218.853 274.57 222.312 280.736 222.314C286.876 222.315 293.21 218.885 299.821 211.745L296.885 209.028L293.95 206.31C288.061 212.671 283.7 214.314 280.737 214.314C277.8 214.313 275.039 212.695 272.334 209.695C269.635 206.701 267.454 202.834 265.675 199.415C264.841 197.812 264.007 196.129 263.351 194.955C263.02 194.362 262.632 193.709 262.21 193.155C261.999 192.878 261.698 192.516 261.306 192.176C260.955 191.871 260.231 191.318 259.17 191.106L258.385 195.028Z" fill="black"/>
<circle cx="356.365" cy="221.365" r="14.8777" transform="rotate(6.05725 356.365 221.365)" fill="black"/>
<circle cx="187.75" cy="178.392" r="14.8777" transform="rotate(6.05725 187.75 178.392)" fill="black"/>
</svg>
