<svg width="785" height="203" viewBox="0 0 785 203" fill="none" xmlns="http://www.w3.org/2000/svg">
<path d="M20.2282 9.03887C26.8395 3.87412 36.2471 -0.657737 46.7741 0.078911H157C167.217 0.078911 175.5 8.36164 175.5 18.5789C175.5 28.6365 167.474 36.8199 157.477 37.0731L157 37.0789H45.0026L44.8356 37.0604C44.5202 37.19 43.9004 37.4979 43.0065 38.1961C41.0179 39.7496 39.2236 42.1245 38.3161 44.6102C37.4809 46.8977 37.5394 48.768 38.2028 50.4178C38.8401 52.0025 40.7751 55.1975 46.8981 58.7889L149.829 97.8826L150.086 97.9891C162.085 102.964 168.669 113.978 171.957 123.089C175.444 132.753 176.65 143.924 175.446 154.591C174.249 165.198 170.477 176.835 162.411 186.168C153.893 196.023 141.582 202.079 126.5 202.079H23.9997C13.7826 202.079 5.4998 193.796 5.49965 183.579C5.49965 173.362 13.7825 165.079 23.9997 165.079H126.5C130.918 165.079 132.983 163.634 134.418 161.973C136.304 159.791 138.064 155.897 138.679 150.442C139.288 145.046 138.588 139.622 137.153 135.646C136.328 133.359 135.573 132.311 135.255 131.926L31.2116 92.41L30.068 91.7801C17.5113 84.8577 8.43708 75.5683 3.87465 64.2234C-0.696096 52.8578 0.081943 41.4464 3.55922 31.9217C6.96419 22.595 13.0763 14.6259 20.2282 9.03887Z" fill="#E74E95"/>
<path d="M200 5C200 2.79086 201.791 1 204 1H232C234.209 1 236 2.79086 236 5V197C236 199.209 234.209 201 232 201H204C201.791 201 200 199.209 200 197V5Z" fill="#E74E95"/>
<path d="M320 5C320 2.79086 321.791 1 324 1H352C354.209 1 356 2.79086 356 5V197C356 199.209 354.209 201 352 201H324C321.791 201 320 199.209 320 197V5Z" fill="#E74E95"/>
<path d="M260 37C257.791 37 256 35.2091 256 33L256 4.99994C256 2.7908 257.791 0.999934 260 0.999935L416.095 0.99999C418.783 0.999991 420.706 3.59823 419.921 6.16886L411.365 34.1689C410.851 35.851 409.299 37 407.54 37L260 37Z" fill="#E74E95"/>
<path d="M565.685 164.387C560.935 164.387 556.553 164.02 552.431 163.388C547.579 166.748 541.604 168.753 535.121 168.753H486.535C470.429 168.753 457.333 156.498 457.333 141.436V60.5583C457.333 45.5022 470.429 33.2415 486.535 33.2415H535.121C551.227 33.2415 564.324 45.4965 564.324 60.5583V136.015C564.793 136.026 565.205 136.082 565.685 136.082C579.939 136.082 589.371 131.084 595.662 124.459V56.2324C595.662 25.7755 569.509 1 537.357 1H484.305C452.154 1 426 25.7811 426 56.2324V145.767C426 176.225 452.154 201 484.305 201H537.357C564.511 201 587.315 183.307 593.776 159.469C585.965 162.546 576.698 164.393 565.691 164.393" fill="#008BBA"/>
<path d="M741.294 199.791C742.061 200.554 743.107 200.994 744.214 200.994C744.367 200.994 744.501 200.921 744.647 200.909C743.354 200.746 742.141 200.266 741.107 199.498C741.181 199.594 741.207 199.701 741.294 199.791Z" fill="#008BBA"/>
<path d="M784.067 53.0698C784.067 24.358 759.414 1 729.114 1H653.339C649.16 1 645.766 4.30943 645.766 8.38127V25.8715C645.766 29.9377 649.16 33.2415 653.339 33.2415H734.154C740.161 33.2415 745.754 36.1161 748.767 40.7301C753.421 47.8628 754.027 55.4079 750.467 61.9815C746.827 68.708 739.547 72.8927 731.474 72.8927H673.647C658.275 72.8927 645.766 84.786 645.766 99.4133C645.766 106.489 648.81 113.391 654.113 118.349L740.407 198.944C740.627 199.147 740.874 199.311 741.121 199.487C742.161 200.249 743.374 200.735 744.667 200.898C744.987 200.938 745.307 200.995 745.647 200.995H771.654C774.807 200.995 777.581 199.142 778.721 196.279C779.814 193.517 779.114 190.389 776.927 188.321L688.941 105.139H729.114C759.414 105.139 784.067 81.7813 784.067 53.0698Z" fill="#008BBA"/>
<path d="M610.271 200.994H635.109V176.157H610.271V200.994ZM612.999 178.89H632.381V198.272H612.999V178.89Z" fill="#008BBA"/>
<path d="M630.522 180.765H614.907V196.38H630.522V180.765Z" fill="#008BBA"/>
<path d="M564.316 136.015C531.413 135.246 524.806 107.703 523.518 95.742C523.129 92.1394 519.989 89.4167 516.205 89.4167H504.492C502.075 89.4167 499.787 90.4167 498.217 92.1727C496.715 93.8334 496.021 95.9627 496.252 98.142C497.76 112.408 506.22 156.295 552.422 163.382C556.545 164.015 560.933 164.381 565.677 164.381C576.684 164.381 585.951 162.535 593.756 159.457C626.873 146.4 633.689 111.024 635.062 98.5154C635.299 96.3467 634.587 94.1494 633.108 92.5007C631.532 90.7387 629.239 89.7334 626.828 89.7334H615.928C611.743 89.7334 608.213 92.7434 607.711 96.742C606.864 103.541 604.136 115.491 595.648 124.448C589.362 131.079 579.925 136.071 565.671 136.071C565.191 136.071 564.779 136.009 564.31 136.003" fill="#E74E95"/>
</svg>
